HIERARCHY
ROOT Hips
{
 OFFSET 0.000000 0.000000 0.000000
 CHANNELS 6 Xposition Yposition Zposition Yrotation Xrotation Zrotation
 JOINT Chest
 {
  OFFSET 0.000000 9.585900 0.002600
  CHANNELS 3 Yrotation Xrotation Zrotation
  JOINT Chest2
  {
   OFFSET 0.000000 9.601200 -0.005300
   CHANNELS 3 Yrotation Xrotation Zrotation
   JOINT Chest3
   {
    OFFSET 0.000000 9.561800 0.000000
    CHANNELS 3 Yrotation Xrotation Zrotation
    JOINT Chest4
    {
     OFFSET 0.000000 9.552100 0.000000
     CHANNELS 3 Yrotation Xrotation Zrotation
     JOINT Neck
     {
      OFFSET 0.000000 14.453000 0.000000
      CHANNELS 3 Yrotation Xrotation Zrotation
      JOINT Head
      {
       OFFSET 0.000000 8.936500 -0.011300
       CHANNELS 3 Yrotation Xrotation Zrotation
       End Site
       {
        OFFSET 0.000000 17.073600 -0.006000
       }
      }
     }
     JOINT RightCollar
     {
      OFFSET -2.921100 9.558500 0.000000
      CHANNELS 3 Yrotation Xrotation Zrotation
      JOINT RightShoulder
      {
       OFFSET -13.519700 0.000000 0.000000
       CHANNELS 3 Yrotation Xrotation Zrotation
       JOINT RightElbow
       {
        OFFSET 0.000000 -29.696600 0.000000
        CHANNELS 3 Yrotation Xrotation Zrotation
        JOINT RightWrist
        {
         OFFSET 0.000000 -24.004700 0.000000
         CHANNELS 3 Yrotation Xrotation Zrotation
         End Site
         {
          OFFSET 0.000000 -17.728500 0.000000
         }
        }
       }
      }
     }
     JOINT LeftCollar
     {
      OFFSET 2.921100 9.558500 0.000000
      CHANNELS 3 Yrotation Xrotation Zrotation
      JOINT LeftShoulder
      {
       OFFSET 13.519700 0.000000 0.000000
       CHANNELS 3 Yrotation Xrotation Zrotation
       JOINT LeftElbow
       {
        OFFSET 0.000000 -29.696600 0.000000
        CHANNELS 3 Yrotation Xrotation Zrotation
        JOINT LeftWrist
        {
         OFFSET 0.000000 -24.004700 0.000000
         CHANNELS 3 Yrotation Xrotation Zrotation
         End Site
         {
          OFFSET 0.000000 -17.728500 0.000000
         }
        }
       }
      }
     }
    }
   }
  }
 }
 JOINT RightHip
 {
  OFFSET -7.771700 -0.012900 -0.001300
  CHANNELS 3 Yrotation Xrotation Zrotation
  JOINT RightKnee
  {
   OFFSET 0.000000 -40.869800 0.001200
   CHANNELS 3 Yrotation Xrotation Zrotation
   JOINT RightAnkle
   {
    OFFSET 0.000000 -39.717900 0.002100
    CHANNELS 3 Yrotation Xrotation Zrotation
    JOINT RightToe
    {
     OFFSET 0.000000 -4.965400 11.033500
     CHANNELS 3 Yrotation Xrotation Zrotation
     End Site
     {
      OFFSET 0.000000 -1.423100 5.872300
     }
    }
   }
  }
 }
 JOINT LeftHip
 {
  OFFSET 7.771700 -0.012900 -0.001300
  CHANNELS 3 Yrotation Xrotation Zrotation
  JOINT LeftKnee
  {
   OFFSET 0.000000 -40.869800 0.001200
   CHANNELS 3 Yrotation Xrotation Zrotation
   JOINT LeftAnkle
   {
    OFFSET 0.000000 -39.717900 0.002100
    CHANNELS 3 Yrotation Xrotation Zrotation
    JOINT LeftToe
    {
     OFFSET 0.000000 -4.965400 11.033500
     CHANNELS 3 Yrotation Xrotation Zrotation
     End Site
     {
      OFFSET 0.000000 -1.423100 5.872300
     }
    }
   }
  }
 }
}
MOTION
Frames: 10
Frame Time: 0.008333
-30.689789 52.297623 26.345916 -177.339419 -31.021469 -2.483675 2.609447 27.348956 -2.240832 0.520739 4.816220 -0.475902 0.802182 7.593986 -0.715611 2.150961 22.251317 -1.864091 4.980249 27.122809 -10.612281 8.098094 5.239549 -13.249469 13.247453 12.295136 14.579945 29.203635 -16.521622 -41.120056 -97.335377 -46.268322 29.811271 -16.582102 -14.092601 -2.714160 -10.291999 14.972158 -18.019825 -29.809477 -10.010843 43.625763 133.849165 -46.179003 -78.871268 20.507440 -1.921482 16.978826 -11.726390 -50.594747 0.455404 -49.678206 80.227813 -57.468760 -3.204608 -2.482312 5.041594 0.010685 -0.426613 0.306823 -4.285017 -49.634927 -1.869881 43.691977 81.277008 49.999847 -0.710025 -7.803238 -4.847700 0.004497 0.042477 0.011970
-30.695868 52.295942 26.359765 -177.357780 -31.040379 -2.477364 2.629071 27.368904 -2.245552 0.524138 4.823425 -0.471778 0.799150 7.595030 -0.714347 2.158742 22.281117 -1.861926 4.582287 27.007891 -10.747742 7.670947 5.064798 -13.302063 13.277415 12.260415 14.584656 29.181485 -16.596967 -41.339979 -96.563452 -45.815154 29.154261 -15.246339 -12.575739 -6.346895 -10.310237 14.940724 -18.041909 -29.867473 -10.037351 43.665977 133.613846 -46.057741 -78.408667 20.477717 -1.953414 17.366703 -11.658973 -50.563882 0.431572 -49.254292 80.227498 -57.033256 -3.255607 -2.369255 5.023706 0.015545 -0.405629 0.263441 -4.263158 -49.619791 -1.873311 43.676644 81.272998 49.986107 -0.711707 -7.803113 -4.848714 0.006911 0.049121 0.014897
-30.707147 52.288842 26.377283 -177.406790 -31.044816 -2.424581 2.664338 27.378600 -2.279844 0.519741 4.821238 -0.466560 0.804926 7.617312 -0.718641 2.166554 22.301979 -1.855162 4.166926 26.857898 -10.888070 7.226178 4.845623 -13.355163 13.302194 12.221126 14.588240 29.242493 -16.625949 -41.544065 -95.846719 -45.404463 28.455760 -14.027880 -10.842368 -9.817317 -10.333780 14.933450 -18.104744 -29.938374 -10.070247 43.744943 133.368778 -45.975805 -77.959553 20.442942 -1.962390 17.621868 -11.568636 -50.557864 0.382789 -48.863736 80.236549 -56.645030 -3.299408 -2.242805 5.001266 0.026277 -0.421208 0.222829 -4.164579 -49.626753 -1.933517 43.610524 81.270347 49.922950 -0.713896 -7.809873 -4.841231 0.015644 0.072606 0.016818
-30.716893 52.279217 26.396170 -177.421443 -31.044929 -2.400514 2.674872 27.390568 -2.301409 0.521518 4.829654 -0.466076 0.818685 7.667111 -0.720828 2.156192 22.257220 -1.845650 3.749353 26.704978 -11.031860 6.767808 4.589428 -13.407168 13.442882 12.223782 14.618904 29.310080 -16.654956 -41.756082 -95.223932 -45.007744 27.717503 -13.025231 -9.031020 -12.968974 -10.343908 14.932620 -18.143080 -29.963832 -10.089404 43.773076 133.127251 -45.903910 -77.566456 20.409365 -1.949571 17.762775 -11.500939 -50.552533 0.340996 -48.539129 80.235727 -56.308495 -3.330646 -2.159523 4.948524 0.023711 -0.432333 0.246195 -4.114007 -49.634865 -1.972949 43.511255 81.254204 49.823648 -0.715506 -7.794970 -4.831538 0.012821 0.085530 0.018736
-30.724508 52.269412 26.414215 -177.441521 -31.054311 -2.388795 2.709989 27.428101 -2.301309 0.510462 4.824279 -0.463725 0.825161 7.672854 -0.717659 2.153617 22.255214 -1.842022 3.329149 26.532337 -11.177354 6.297690 4.307936 -13.453896 13.542523 12.215788 14.632369 29.491982 -16.648251 -41.931052 -94.719091 -44.600990 26.964932 -12.287249 -7.311272 -15.711121 -10.351193 14.932223 -18.185248 -29.980434 -10.094734 43.813334 132.885152 -45.834066 -77.194640 20.374136 -1.915561 17.811083 -11.441912 -50.533411 0.323753 -48.283207 80.218186 -56.040827 -3.341365 -2.089795 4.885964 0.013418 -0.434549 0.282932 -4.076899 -49.631760 -1.991126 43.464053 81.242175 49.781276 -0.719175 -7.795895 -4.826711 0.012425 0.105020 0.019355
-30.732150 52.260164 26.431042 -177.467895 -31.072068 -2.375145 2.754012 27.463216 -2.292810 0.505979 4.831008 -0.463596 0.815858 7.658284 -0.715673 2.179205 22.301135 -1.836802 2.892912 26.320318 -11.316617 5.819884 4.013412 -13.490950 13.602798 12.173286 14.630467 29.722274 -16.635740 -42.059879 -94.352748 -44.180140 26.258115 -11.806892 -5.826619 -18.004332 -10.373978 14.899284 -18.203834 -29.989323 -10.098294 43.837421 132.640327 -45.770779 -76.846017 20.336293 -1.872039 17.780678 -11.396751 -50.510409 0.311810 -48.055750 80.203910 -55.813404 -3.347276 -2.039112 4.869746 0.015134 -0.403667 0.250412 -4.039297 -49.621247 -2.003066 43.449072 81.239131 49.771442 -0.727239 -7.806049 -4.827507 0.021547 0.124241 0.021696
-30.742658 52.250726 26.448210 -177.507053 -31.083675 -2.336923 2.796686 27.490589 -2.305239 0.513976 4.841412 -0.463671 0.822129 7.672490 -0.713913 2.250973 22.373023 -1.821800 2.405206 26.048702 -11.429826 5.340645 3.714842 -13.514631 13.595789 12.071037 14.628071 29.929915 -16.638795 -42.133111 -94.131832 -43.752689 25.661314 -11.542766 -4.676893 -19.849536 -10.457378 14.803753 -18.167359 -29.963998 -10.094680 43.810515 132.415622 -45.706334 -76.562065 20.298918 -1.827212 17.682630 -11.315084 -50.497681 0.271905 -47.884805 80.186872 -55.641764 -3.359886 -1.965884 4.869142 0.024222 -0.408399 0.210628 -3.974654 -49.617317 -2.041903 43.409763 81.223918 49.732037 -0.736613 -7.830787 -4.832939 0.029978 0.167851 0.031187
-30.754999 52.240420 26.466929 -177.499101 -31.073938 -2.308389 2.803326 27.506110 -2.330155 0.539238 4.872462 -0.462718 0.835186 7.692650 -0.711119 2.249904 22.352856 -1.809543 1.964478 25.830804 -11.539166 4.865935 3.416361 -13.523703 13.623474 12.027195 14.626048 30.074686 -16.662966 -42.141131 -94.036475 -43.331495 25.203762 -11.444685 -3.911841 -21.244202 -10.494403 14.788704 -18.182629 -29.953934 -10.083990 43.814675 132.214045 -45.637046 -76.327626 20.264871 -1.778903 17.528489 -11.274598 -50.511105 0.221532 -47.730083 80.181437 -55.494645 -3.368420 -1.955669 4.847656 0.019044 -0.367096 0.195581 -3.941206 -49.627607 -2.094750 43.260304 81.190587 49.571525 -0.742586 -7.820382 -4.822788 0.032809 0.191073 0.026371
-30.763677 52.232606 26.481754 -177.512370 -31.078006 -2.285992 2.849684 27.538815 -2.330566 0.545965 4.880897 -0.461644 0.845896 7.705036 -0.709162 2.263924 22.352294 -1.798117 1.535155 25.610468 -11.634875 4.402196 3.117086 -13.519938 13.641002 11.992810 14.623363 30.136304 -16.708785 -42.081982 -94.025085 -42.937325 24.881770 -11.465734 -3.531342 -22.182703 -10.489141 14.814212 -18.232641 -29.945391 -10.059555 43.814872 132.055020 -45.568546 -76.208894 20.238118 -1.731341 17.327705 -11.231167 -50.505473 0.192346 -47.589110 80.185585 -55.360271 -3.375231 -1.995422 4.825091 0.011209 -0.294129 0.150977 -3.912466 -49.625811 -2.119367 43.198621 81.177772 49.504308 -0.747799 -7.830010 -4.825566 0.038183 0.215372 0.032627
-30.766550 52.226646 26.493620 -177.514960 -31.083831 -2.296647 2.894908 27.566247 -2.302326 0.551445 4.886569 -0.461227 0.854514 7.713294 -0.708123 2.288615 22.360741 -1.790533 1.121013 25.384541 -11.717024 3.953705 2.813199 -13.504244 13.650563 11.967235 14.623220 30.108623 -16.771757 -41.959050 -94.058569 -42.595521 24.687169 -11.555338 -3.494564 -22.686696 -10.525744 14.795929 -18.216754 -29.908409 -10.048181 43.772369 131.889394 -45.500193 -76.051224 20.224841 -1.690340 17.092892 -11.189263 -50.487860 0.191565 -47.594886 80.169577 -55.346184 -3.405441 -2.046849 4.829112 0.030586 -0.236139 0.135073 -3.924233 -49.621654 -2.101444 43.170345 81.173448 49.474118 -0.745319 -7.847830 -4.831176 0.038454 0.240193 0.037400
